<svg width="20" height="20" viewBox="0 0 20 20" fill="none" xmlns="http://www.w3.org/2000/svg">
<path d="M11.6669 17.5H8.33354L7.87437 15.4333C7.32797 15.2196 6.81694 14.9246 6.35854 14.5583L4.33854 15.1942L2.67188 12.3075L4.23187 10.8758C4.14388 10.2958 4.14388 9.70585 4.23187 9.12583L2.67188 7.69333L4.33854 4.80667L6.35854 5.4425C6.81714 5.07589 7.32846 4.78062 7.87521 4.56667L8.33354 2.5H11.6669L12.126 4.56667C12.6724 4.78044 13.1835 5.07543 13.6419 5.44167L15.6619 4.80583L17.3285 7.6925L15.7685 9.12417C15.8565 9.70418 15.8565 10.2942 15.7685 10.8742L17.3285 12.3058L15.6619 15.1925L13.6419 14.5567C13.1836 14.9235 12.6726 15.219 12.126 15.4333L11.6669 17.5Z" stroke="black" stroke-width="2" stroke-linecap="round" stroke-linejoin="round"/>
<path d="M10 12.5C11.3807 12.5 12.5 11.3807 12.5 10C12.5 8.61929 11.3807 7.5 10 7.5C8.61929 7.5 7.5 8.61929 7.5 10C7.5 11.3807 8.61929 12.5 10 12.5Z" stroke="black" stroke-width="2"/>
</svg>
